{
  "accessors": [
    {
      "bufferView": 0,
      "componentType": 5125,
      "count": 246897,
      "type": "SCALAR"
    },
    {
      "bufferView": 1,
      "componentType": 5126,
      "count": 113600,
      "max": [
        3.85180187225342,
        2.97138214111328,
        2.80716991424561
      ],
      "min": [
        -3.67789602279663,
        -0.317407011985779,
        -0.496163010597229
      ],
      "type": "VEC3"
    },
    {
      "bufferView": 2,
      "componentType": 5126,
      "count": 113600,
      "type": "VEC3"
    },
    {
      "bufferView": 3,
      "componentType": 5126,
      "count": 113600,
      "type": "VEC4"
    },
    {
      "bufferView": 4,
      "componentType": 5126,
      "count": 113600,
      "type": "VEC2"
    }
  ],
  "asset": {
    "generator": "Adobe Substance 3D Painter 8.2.0",
    "version": "2.0"
  },
  "bufferViews": [
    {
      "buffer": 0,
      "byteLength": 987588,
      "target": 34963
    },
    {
      "buffer": 0,
      "byteLength": 1363200,
      "byteOffset": 987588,
      "target": 34962
    },
    {
      "buffer": 0,
      "byteLength": 1363200,
      "byteOffset": 2350788,
      "target": 34962
    },
    {
      "buffer": 0,
      "byteLength": 1817600,
      "byteOffset": 3713988,
      "target": 34962
    },
    {
      "buffer": 0,
      "byteLength": 908800,
      "byteOffset": 5531588,
      "target": 34962
    }
  ],
  "buffers": [
    {
      "byteLength": 6440388,
      "uri": "무제.bin"
    }
  ],
  "images": [
    {
      "uri": "lambert2SG_baseColor.png"
    },
    {
      "uri": "lambert2SG_occlusionRoughnessMetallic.png"
    },
    {
      "uri": "lambert2SG_normal.png"
    }
  ],
  "materials": [
    {
      "alphaMode": "OPAQUE",
      "name": "lambert2SG",
      "normalTexture": {
        "index": 2
      },
      "occlusionTexture": {
        "index": 1
      },
      "pbrMetallicRoughness": {
        "baseColorTexture": {
          "index": 0
        },
        "metallicRoughnessTexture": {
          "index": 1
        }
      }
    }
  ],
  "meshes": [
    {
      "name": "mothteafinal:pCylinder7polySurface22",
      "primitives": [
        {
          "attributes": {
            "NORMAL": 2,
            "POSITION": 1,
            "TANGENT": 3,
            "TEXCOORD_0": 4
          },
          "indices": 0,
          "material": 0,
          "mode": 4
        }
      ]
    }
  ],
  "nodes": [
    {
      "children": [
        1
      ],
      "name": "please.obj"
    },
    {
      "children": [
        2
      ],
      "name": "mothteafinal:pCylinder7polySurface22"
    },
    {
      "mesh": 0,
      "name": "mothteafinal:pCylinder7polySurface22"
    }
  ],
  "samplers": [
    {
      "magFilter": 9729,
      "minFilter": 9985,
      "wrapS": 10497,
      "wrapT": 10497
    }
  ],
  "scene": 0,
  "scenes": [
    {
      "name": "Scene",
      "nodes": [
        0
      ]
    }
  ],
  "textures": [
    {
      "sampler": 0,
      "source": 0
    },
    {
      "sampler": 0,
      "source": 1
    },
    {
      "sampler": 0,
      "source": 2
    }
  ]
}